<svg id="Layer_1" data-name="Layer 1" xmlns="http://www.w3.org/2000/svg" xmlns:xlink="http://www.w3.org/1999/xlink" viewBox="0 0 643.72 440.48"><defs><style>.cls-1{stroke:#56154a;stroke-miterlimit:10;stroke-width:3px;fill:url(#linear-gradient);}</style><linearGradient id="linear-gradient" x1="-45.22" y1="145.67" x2="644.24" y2="375.5" gradientUnits="userSpaceOnUse"><stop offset="0" stop-color="#ff00c0"/><stop offset="0.07" stop-color="#df00ae"/><stop offset="0.2" stop-color="#ae0093"/><stop offset="0.32" stop-color="#85007d"/><stop offset="0.44" stop-color="#65006b"/><stop offset="0.55" stop-color="#4e005f"/><stop offset="0.66" stop-color="#410058"/><stop offset="0.76" stop-color="#3c0055"/></linearGradient></defs><title>phoenix</title><path class="cls-1" d="M212.9,344.3c3.8-.1,22.8-1.4,25.6-2.2-2.4-2.6-43.6-1-68-49.6-4.3-8.6-7.5-17.6-6.4-27.6,2.9-25.5,32.9-30,52-18.5,36,21.6,63.3,91.3,113.7,97.5,37,4.5,84.6-17,108.2-45.4-.6-.1-.8-.2-1-.1-.4.1-.8.2-1.1.3-33.3,12.1-94.3,9.7-134.7-14.8-37.6-22.8-53.1-58.7-51.8-74.6,1.8-21.3,22.9-23.2,35.9-19.6,14.4,3.9,24.4,17.6,38.9,27.4,15.6,10.4,32.9,13.7,51.3,10.3,14.9-2.7,34.4-12.3,36.5-14.5-1.1-.1-1.8-.1-2.5-.2-6.2-.6-12.4-.8-18.5-1.7C279.8,194.5,262.1,47.4,138.5,37.9,94.2,34.5,39.1,46,2.2,72.9c-.8.6-1.5,1.2-2.2,1.8.1.2.1.3.2.5A19.42,19.42,0,0,0,2.6,75a55.88,55.88,0,0,1,18.7.3C45.1,79.6,69,98.4,77.2,151.8c5.3,34.3-.7,50.8,8,86.1,19,77.1,91,107.6,127.7,106.4ZM75.3,64.9a6.06,6.06,0,0,1-1.3-2,236.57,236.57,0,0,1,36.6-4.8C109.5,72.8,88.4,79.4,75.3,64.9ZM272.2,415.4c-42.8,1.2-92-26.7-123.5-61.4-4.6-5-16.8-20.2-18.6-23.4l.4-.4c6.6,4.1,25.7,18.6,54.8,27,24.2,7,48.1,6.3,71.6-3.3,22.7-9.3,41-.5,43.1,2.9-18.5,3.8-20.1,4.4-24,7.9-5.1,4.4-4.6,11.7,7,17.2,26.2,12.4,63-2.8,97.2,25.4A79.56,79.56,0,0,1,390.3,418c-.1.2-.3.3-.4.5-4.8-1.5-16.4-7.5-40.2-9.3-24.7-2-46.3,5.3-77.5,6.2ZM447,163.4c16.4-5.2,41.3-13.4,66.5-3.3,16.1,6.5,26.2,18.7,32.1,34.6a84.47,84.47,0,0,1,5.1,28.7,1.27,1.27,0,0,0-.6.1,6.94,6.94,0,0,1-.5-1.3c-5-22-29.9-43.8-67.6-29.9-50.2,18.6-130.4,9.7-176.9-48-.7-.9-2.4-1.7-1.3-3.2.1-.2,2.1.6,3,1.3a147.39,147.39,0,0,0,60.3,26.2c30.5,6.1,54.6,2.9,79.9-5.2ZM549.7,280.9c-32.4.2-33.8,50.1-103.6,64.4-18.2,3.7-38.7,4.6-44.9,4.2v-.4c2.8-1.5,14.7-2.6,29.7-16.6,7.9-7.3,15.3-15.1,22.8-22.9,19.5-20.2,41.4-42.2,81.9-39,23.1,1.8,29.3,8.2,36.1,12.7.3.2.4.5.7.9-.5,0-.7.1-.9,0-7-2.7-14.3-3.3-21.8-3.3Zm-12.3-24.1c-.1.2-.1.4-.2.6-28.9-4.4-48-7.9-68.5,4-17,9.9-31.4,20.5-62,24.4-27.1,3.4-45.1,2.4-66.1-8a8.79,8.79,0,0,0-1-.6c0-.2.1-.3.1-.5,24.9,3.8,36.4,5.1,55.5-5.8,22.3-12.9,40.1-26.6,71.3-31C496.1,235.8,517.8,242.4,537.4,256.8ZM268.6,97.3c-.6-.6-1.1-1.2-2.1-2.3,7.6,0,29.7-1.2,53.4,8.4,19.7,8,32.2,21,50.2,32.9,11.1,7.3,23.4,9.3,36.4,8.1,4.3-.4,8.5-1.2,12.8-1.7a2.24,2.24,0,0,1,1.5.3,18.76,18.76,0,0,1-1.8,1.2,72,72,0,0,1-25.6,7.1c-26.1,2.6-50.3-3.7-73.4-15.4a192.12,192.12,0,0,1-51.4-38.6ZM640,335.7c-3.5,3.1-22.7,11.6-42.7,5.3-12.3-3.9-19.5-14.9-31.6-24.1-10-7.6-20.9-7.9-28.1-8.4a6.51,6.51,0,0,1,1.2-1.4c14.8-9.2,30.5-12.2,47.3-6.5,12.5,4.2,19.2,13.5,30.4,24.2,10.8,10.4,21,9.9,23.1,10.5.1-.1.2,0,.4.4Zm-212.5,137c2.2,1.2,1.6,1.5,1.5,2-18.5-1.4-33.9-7.6-46.8-22.2-21.8-24.7-41.7-27.9-48.6-29.7a3.74,3.74,0,0,1,1.1-.4c13.1.1,26.1.7,38.9,3.9,25.3,6.4,35,25.4,41.6,35.3a34.51,34.51,0,0,0,12.3,11.1Z" transform="translate(1.87 -35.82)"/></svg>