<svg id="Layer_1" data-name="Layer 1" xmlns="http://www.w3.org/2000/svg" viewBox="0 0 437.69 218.51"><defs><style>.cls-1,.cls-2,.cls-3{fill:#fff;}.cls-1{opacity:0.9;}.cls-2{opacity:0.6;}.cls-3{opacity:0.3;}</style></defs><title>chevron-down</title><path class="cls-1" d="M207,362.49,12.69,265.31c-9.38-4.68-9.38-12.28,0-17L35.35,237c9.36-4.68,24.53-4.69,33.9,0L224,314l154.74-77c9.38-4.67,24.55-4.66,33.91,0l22.66,11.33c9.38,4.69,9.38,12.29,0,17L241,362.49c-9.37,4.68-24.57,4.68-33.94,0Z" transform="translate(-5.66 -147.49)"/><path class="cls-2" d="M208,318.49,13.69,221.31c-9.38-4.68-9.38-12.28,0-17L36.35,193c9.36-4.68,24.53-4.69,33.9,0L225,270l154.74-77c9.38-4.67,24.55-4.66,33.91,0l22.66,11.33c9.38,4.69,9.38,12.29,0,17L242,318.49c-9.37,4.68-24.57,4.68-33.94,0Z" transform="translate(-5.66 -147.49)"/><path class="cls-3" d="M208,276.49,13.69,179.31c-9.38-4.68-9.38-12.28,0-17L36.35,151c9.36-4.68,24.53-4.69,33.9,0L225,228l154.74-77c9.38-4.67,24.55-4.66,33.91,0l22.66,11.33c9.38,4.69,9.38,12.29,0,17L242,276.49c-9.37,4.68-24.57,4.68-33.94,0Z" transform="translate(-5.66 -147.49)"/></svg>